<?xml version="1.0" standalone="no"?>
<!DOCTYPE svg PUBLIC "-//W3C//DTD SVG 20010904//EN"
 "http://www.w3.org/TR/2001/REC-SVG-20010904/DTD/svg10.dtd">
<svg version="1.0" xmlns="http://www.w3.org/2000/svg"
 width="512.000000pt" height="512.000000pt" viewBox="0 0 512.000000 512.000000"
 preserveAspectRatio="xMidYMid meet">

<g transform="translate(0.000000,512.000000) scale(0.100000,-0.100000)"
fill="#590f34" stroke="none">
<path d="M1349 5025 c-186 -34 -346 -116 -484 -247 -141 -135 -229 -281 -274
-458 l-18 -73 -47 -12 c-53 -14 -93 -46 -112 -92 -19 -44 -19 -242 0 -286 17
-43 68 -85 111 -93 l33 -6 4 -241 c3 -240 3 -242 30 -293 40 -75 70 -107 137
-143 42 -22 80 -33 125 -38 60 -5 66 -8 77 -36 21 -50 109 -132 177 -163 34
-16 62 -33 61 -39 0 -5 -8 -30 -17 -54 -17 -42 -19 -44 -112 -75 -409 -140
-735 -462 -879 -869 -59 -167 -75 -270 -75 -482 0 -163 3 -201 21 -266 61
-219 217 -426 400 -531 l53 -30 0 -209 0 -209 1200 0 1200 0 0 320 0 320 125
0 c99 0 125 -3 125 -14 0 -7 16 -45 35 -83 43 -86 103 -144 193 -186 61 -29
76 -32 162 -32 86 0 101 3 162 32 90 42 150 100 193 186 19 38 35 75 35 82 0
10 58 14 263 17 253 4 265 5 344 31 225 75 388 261 438 499 25 118 37 108
-131 108 -113 0 -145 3 -141 13 3 6 64 160 136 341 73 181 128 332 124 337 -9
8 -135 60 -138 56 -1 -1 -69 -170 -150 -374 -90 -225 -154 -373 -162 -373 -11
0 -13 91 -13 480 l0 480 -80 0 -80 0 0 640 0 640 -160 0 -160 0 0 160 0 160
-80 0 -80 0 0 -160 0 -160 -80 0 -80 0 0 240 0 240 -80 0 -80 0 0 -240 0 -240
-80 0 -80 0 0 160 0 160 -80 0 -80 0 0 -160 0 -160 -160 0 -160 0 0 -480 0
-480 -160 0 -160 0 0 -201 0 -202 -113 109 c-165 161 -326 261 -527 330 -93
31 -95 33 -112 75 -9 24 -17 49 -17 55 -1 6 24 21 56 34 63 26 160 116 182
167 11 28 16 31 77 36 45 5 83 16 125 38 67 36 97 68 137 143 27 51 27 53 30
293 l4 241 33 6 c43 8 94 50 111 93 19 44 19 242 0 286 -19 46 -59 78 -112 92
l-47 12 -17 69 c-62 241 -237 476 -445 593 -198 113 -437 155 -656 116z m251
-465 l0 -320 -80 0 -80 0 0 320 0 320 80 0 80 0 0 -320z m-320 -20 l0 -300
-270 0 c-218 0 -270 3 -270 13 0 29 43 145 77 207 88 161 229 289 392 356 31
13 59 24 64 24 4 0 7 -135 7 -300z m597 254 c142 -68 267 -189 346 -334 34
-62 77 -178 77 -207 0 -10 -52 -13 -270 -13 l-270 0 0 301 0 300 23 -6 c12 -3
54 -22 94 -41z m603 -794 l0 -80 -960 0 -960 0 0 80 0 80 960 0 960 0 0 -80z
m-1600 -277 l0 -38 -63 -16 c-34 -9 -70 -19 -79 -23 -16 -7 -18 -2 -18 53 l0
61 80 0 80 0 0 -37z m1120 -259 c0 -204 -4 -310 -12 -338 -16 -55 -99 -138
-154 -154 -57 -17 -571 -17 -628 0 -55 16 -138 99 -154 154 -8 28 -12 134 -12
338 l0 296 480 0 480 0 0 -296z m320 235 c0 -55 -2 -60 -17 -53 -10 4 -46 14
-80 23 l-63 16 0 38 0 37 80 0 80 0 0 -61z m-1440 -339 c0 -177 1 -173 -63
-146 -125 52 -126 238 -2 292 66 29 65 31 65 -146z m1369 132 c49 -36 66 -70
66 -132 0 -44 -5 -66 -21 -86 -28 -39 -63 -63 -101 -70 l-33 -6 0 162 0 163
33 -7 c17 -3 43 -14 56 -24z m1991 -612 l0 -560 -240 0 -240 0 0 160 0 160
-320 0 -320 0 0 400 0 400 560 0 560 0 0 -560z m-2513 -157 l24 -71 -113 -171
c-62 -94 -115 -170 -118 -170 -3 0 -56 76 -118 170 l-113 171 22 66 c12 37 24
70 26 75 2 4 86 6 185 5 l181 -3 24 -72z m-607 -989 l0 -796 -42 7 c-166 28
-292 133 -338 283 -17 55 -20 93 -20 258 l0 194 -80 0 -80 0 0 -198 c0 -297
30 -391 166 -529 97 -98 169 -132 387 -180 l167 -37 0 -89 0 -89 -227 4 c-213
4 -233 6 -308 31 -115 38 -199 91 -290 182 -91 91 -144 175 -182 290 -25 74
-27 93 -27 255 -1 189 10 267 60 417 96 284 300 534 563 687 67 39 216 105
239 106 9 0 12 -166 12 -796z m879 771 c249 -97 484 -294 613 -513 l28 -47 0
-292 c0 -235 -3 -293 -13 -293 -8 0 -72 148 -162 373 -81 204 -149 373 -150
374 -3 4 -129 -48 -138 -56 -4 -5 51 -156 124 -337 72 -181 133 -335 136 -341
4 -10 -28 -13 -141 -13 -168 0 -156 10 -131 -108 20 -98 49 -166 106 -250 l49
-73 0 -344 0 -345 -200 0 -200 0 0 80 c0 67 3 80 16 80 108 0 224 125 224 240
0 115 -116 240 -224 240 -15 0 -16 68 -16 825 0 454 4 825 8 825 5 0 36 -11
71 -25z m1601 -585 l0 -560 -400 0 -400 0 0 560 0 560 400 0 400 0 0 -560z
m-2197 269 c17 -26 17 -26 -53 -114 l-70 -88 0 194 0 194 53 -80 c30 -44 61
-92 70 -106z m357 -10 l0 -192 -70 88 -70 88 17 27 c65 99 118 180 121 180 1
0 2 -86 2 -191z m2640 -419 l0 -400 -320 0 -320 0 0 400 0 400 320 0 320 0 0
-400z m-2757 121 l117 -149 0 -348 0 -349 -122 0 c-143 0 -159 -6 -250 -93
-48 -45 -61 -53 -83 -48 l-25 6 0 416 0 416 118 149 c64 81 119 148 122 148 3
0 58 -67 123 -148z m3207 -694 c0 -25 -76 -131 -127 -179 -116 -107 -198 -128
-509 -128 l-232 0 -12 30 c-17 42 -90 104 -138 118 -53 16 -411 16 -464 0 -48
-14 -121 -76 -138 -118 l-12 -30 -232 0 c-311 0 -393 21 -509 128 -51 48 -127
154 -127 179 0 11 210 13 1250 13 1040 0 1250 -2 1250 -13z m-3115 -332 c21
-20 25 -34 25 -80 l0 -55 95 0 c88 0 98 -2 120 -25 16 -15 25 -36 25 -55 0
-19 -9 -40 -25 -55 l-24 -25 -256 0 -255 0 0 103 0 104 59 56 60 57 76 0 c67
0 79 -3 100 -25z m2080 0 c48 -47 26 -145 -50 -220 -101 -102 -229 -102 -330
0 -76 75 -98 173 -50 220 24 25 26 25 215 25 189 0 191 0 215 -25z m-1220 -96
c43 -15 108 -31 142 -35 l63 -6 0 -239 0 -239 -160 0 -160 0 0 281 c0 264 1
281 18 273 9 -4 53 -20 97 -35z m-1755 -350 c30 -5 106 -9 168 -9 l112 0 0
-80 0 -80 -200 0 -200 0 0 96 0 97 33 -7 c17 -4 57 -11 87 -17z m920 -89 l0
-80 -240 0 -240 0 0 80 0 80 240 0 240 0 0 -80z"/>
<path d="M3280 3200 l0 -80 80 0 80 0 0 80 0 80 -80 0 -80 0 0 -80z"/>
<path d="M3600 3200 l0 -80 80 0 80 0 0 80 0 80 -80 0 -80 0 0 -80z"/>
<path d="M3920 3200 l0 -80 80 0 80 0 0 80 0 80 -80 0 -80 0 0 -80z"/>
<path d="M3280 2880 l0 -80 80 0 80 0 0 80 0 80 -80 0 -80 0 0 -80z"/>
<path d="M3600 2880 l0 -80 80 0 80 0 0 80 0 80 -80 0 -80 0 0 -80z"/>
<path d="M3920 2880 l0 -80 80 0 80 0 0 80 0 80 -80 0 -80 0 0 -80z"/>
<path d="M3920 2560 l0 -80 80 0 80 0 0 80 0 80 -80 0 -80 0 0 -80z"/>
<path d="M2960 1920 l0 -400 80 0 80 0 0 400 0 400 -80 0 -80 0 0 -400z"/>
<path d="M3280 1920 l0 -400 80 0 80 0 0 400 0 400 -80 0 -80 0 0 -400z"/>
<path d="M3920 1920 l0 -80 160 0 160 0 0 80 0 80 -160 0 -160 0 0 -80z"/>
<path d="M3920 1600 l0 -80 160 0 160 0 0 80 0 80 -160 0 -160 0 0 -80z"/>
</g>
</svg>
