<?xml version="1.0" standalone="no"?>
<!DOCTYPE svg PUBLIC "-//W3C//DTD SVG 20010904//EN"
 "http://www.w3.org/TR/2001/REC-SVG-20010904/DTD/svg10.dtd">
<svg version="1.0" xmlns="http://www.w3.org/2000/svg"
 width="64.000000pt" height="64.000000pt" viewBox="0 0 64.000000 64.000000"
 preserveAspectRatio="xMidYMid meet">

<g transform="translate(0.000000,64.000000) scale(0.100000,-0.100000)"
fill="#000000" stroke="none">
<path d="M441 575 l-68 -65 -146 0 -147 0 0 50 c0 43 -3 50 -19 50 -11 0 -29
-12 -40 -26 -20 -25 -21 -39 -21 -246 l0 -219 25 -24 c23 -24 28 -25 176 -25
l153 0 -27 -28 c-15 -16 -24 -31 -20 -35 3 -4 80 -7 170 -7 l163 0 0 170 c0
160 -5 191 -27 158 -4 -8 -10 28 -13 82 l-5 95 -38 5 -39 5 26 24 c14 14 26
32 26 41 0 16 -39 60 -54 60 -4 0 -38 -29 -75 -65z m103 22 c8 -12 7 -20 -1
-28 -18 -18 -58 18 -41 38 13 16 28 13 42 -10z m-474 -291 c7 -7 10 24 10 87
l0 97 137 0 137 0 -27 -28 c-15 -16 -24 -32 -20 -35 4 -4 38 23 75 60 68 67
68 67 88 47 20 -19 20 -20 -78 -117 -98 -97 -98 -98 -117 -77 -17 19 -17 21 0
40 10 11 15 23 12 27 -12 12 -57 -40 -69 -80 -8 -25 -20 -42 -35 -48 -13 -5
-23 -11 -23 -14 0 -3 64 -5 143 -5 95 0 137 3 127 10 -8 5 -49 10 -90 10 -51
1 -69 4 -55 10 11 4 63 51 115 104 90 92 97 96 137 96 l43 0 0 -97 0 -98 -72
-72 c-40 -40 -69 -76 -65 -80 4 -4 46 31 92 77 l85 85 0 -43 c0 -26 -5 -42
-12 -43 -10 0 -10 -2 -1 -6 7 -2 13 -11 13 -18 0 -7 -6 -16 -13 -19 -9 -5 -9
-7 0 -12 17 -7 17 -31 1 -38 -10 -5 -10 -7 0 -12 16 -7 16 -31 -1 -38 -9 -5
-9 -7 1 -12 6 -3 12 -14 12 -25 0 -18 -9 -19 -142 -19 l-142 0 49 50 c27 27
46 53 42 56 -4 4 -17 -2 -30 -14 -22 -21 -33 -22 -184 -22 -146 0 -161 2 -178
20 -24 26 -13 68 20 76 22 5 25 12 25 51 0 27 -4 42 -10 38 -5 -3 -10 -18 -10
-33 0 -16 -8 -32 -20 -40 -20 -12 -20 -10 -20 172 0 162 2 187 18 202 16 17
17 11 20 -121 1 -77 7 -144 12 -149z m434 255 c12 -13 14 -21 6 -26 -13 -8
-52 24 -44 36 8 14 19 11 38 -10z m-234 -252 c0 -5 -7 -9 -15 -9 -9 0 -15 9
-15 21 0 18 2 19 15 9 8 -7 15 -16 15 -21z"/>
<path d="M505 135 l-60 -60 59 -3 c32 -2 60 -1 63 1 2 3 3 31 1 63 l-3 59 -60
-60z m45 -15 c0 -27 -3 -30 -32 -30 l-32 0 29 30 c16 17 30 30 32 30 2 0 3
-13 3 -30z"/>
</g>
</svg>
