<?xml version="1.0" standalone="no"?>
<!DOCTYPE svg PUBLIC "-//W3C//DTD SVG 20010904//EN"
 "http://www.w3.org/TR/2001/REC-SVG-20010904/DTD/svg10.dtd">
<svg version="1.0" xmlns="http://www.w3.org/2000/svg"
 width="512.000000pt" height="512.000000pt" viewBox="0 0 512.000000 512.000000"
 preserveAspectRatio="xMidYMid meet">

<g transform="translate(0.000000,512.000000) scale(0.100000,-0.100000)"
fill="rgb(104, 113, 173)" stroke="none">
<path d="M270 4471 c-83 -26 -162 -85 -208 -159 -65 -102 -62 -25 -62 -1442
l0 -1287 23 -21 c31 -29 77 -29 105 1 l22 23 0 1112 0 1111 225 -167 225 -166
0 -1348 0 -1348 -97 0 c-200 0 -273 29 -325 129 -27 52 -28 57 -28 221 0 149
-2 170 -19 191 -26 32 -86 32 -112 0 -17 -21 -19 -42 -19 -191 0 -140 3 -178
20 -231 36 -114 112 -194 229 -241 l56 -23 2255 0 2255 0 56 23 c117 47 193
127 229 241 20 62 20 90 20 1198 l0 1134 -25 24 c-31 32 -69 32 -100 0 l-25
-24 0 -1134 0 -1135 -28 -53 c-52 -100 -125 -129 -324 -129 l-98 0 0 1348 0
1347 225 167 225 167 0 -155 c0 -85 4 -164 10 -174 23 -43 116 -40 134 5 3 9
6 164 6 345 0 300 -2 333 -20 391 -36 114 -115 197 -226 239 -54 20 -66 20
-2317 19 -1244 0 -2273 -4 -2287 -8z m193 -155 c18 -8 138 -93 267 -190 253
-189 270 -197 315 -151 29 28 32 65 8 93 -10 11 -92 75 -182 141 l-164 121
1853 0 c1019 0 1851 -2 1849 -3 -2 -2 -419 -313 -927 -690 l-922 -687 -608
453 c-334 249 -622 463 -641 476 -40 29 -83 31 -111 6 -23 -21 -27 -72 -7 -97
16 -21 1313 -987 1344 -1001 16 -7 30 -7 47 1 20 9 684 501 1731 1282 165 123
316 232 335 243 27 14 51 18 107 15 91 -4 143 -37 185 -117 37 -71 37 -129 0
-202 -26 -53 -55 -75 -1151 -890 -689 -513 -1138 -841 -1161 -848 -47 -14 -93
-14 -139 0 -22 6 -490 348 -1161 847 -1096 816 -1126 839 -1152 891 -44 86
-35 166 27 247 50 66 176 95 258 60z m1117 -1572 c426 -317 800 -588 830 -603
47 -22 68 -26 150 -26 81 0 103 4 150 26 30 14 339 237 685 495 347 259 702
523 790 588 88 66 166 123 173 129 9 7 12 -250 12 -1282 l0 -1291 -1810 0
-1810 0 0 1291 0 1290 28 -19 c15 -11 376 -280 802 -598z"/>
</g>
</svg>
