<?xml version="1.0" standalone="no"?>
<!DOCTYPE svg PUBLIC "-//W3C//DTD SVG 20010904//EN"
 "http://www.w3.org/TR/2001/REC-SVG-20010904/DTD/svg10.dtd">
<svg version="1.0" xmlns="http://www.w3.org/2000/svg"
 width="512.000000pt" height="512.000000pt" viewBox="0 0 512.000000 512.000000"
 preserveAspectRatio="xMidYMid meet">

<g transform="translate(0.000000,512.000000) scale(0.100000,-0.100000)"
fill="#590f34" stroke="none">
<path d="M287 5109 c-103 -24 -206 -111 -254 -214 l-28 -60 0 -1490 0 -1490
28 -60 c37 -79 114 -156 191 -192 l61 -28 2393 -3 2393 -2 24 24 25 25 0 1526
0 1526 -25 24 -24 25 -920 0 -919 0 -325 200 c-179 110 -335 200 -347 200 -12
0 -168 -90 -346 -200 l-325 -200 -569 0 -570 0 0 175 c0 239 15 225 -237 224
-103 -1 -205 -5 -226 -10z m313 -1463 l0 -1324 -157 -4 c-154 -3 -160 -4 -226
-35 l-67 -32 0 1262 c0 875 3 1274 11 1301 14 50 83 123 134 141 26 9 85 14
173 15 l132 0 0 -1324z m2576 932 l604 -372 0 -108 c0 -59 -3 -108 -6 -108 -3
0 -272 164 -599 365 -326 201 -603 365 -615 365 -12 0 -288 -164 -614 -365
-327 -201 -596 -365 -600 -365 -3 0 -6 48 -6 108 l0 107 603 372 c331 205 608
372 615 372 7 1 285 -166 618 -371z m-1646 -79 c-344 -212 -330 -202 -340
-239 -13 -45 -13 -385 0 -429 19 -67 66 -77 141 -31 l49 30 0 -500 0 -500 -78
0 c-118 0 -117 2 -117 -221 0 -172 1 -179 23 -201 l23 -23 1329 0 1329 0 23
23 c22 22 23 29 23 201 0 223 1 221 -117 221 l-78 0 0 501 0 501 28 -17 c15
-10 36 -24 47 -32 45 -30 99 -8 115 48 13 44 13 384 0 429 -5 19 -20 42 -32
49 -13 8 -113 70 -222 138 l-200 123 747 0 747 0 0 -1425 0 -1425 -2312 0
c-1661 0 -2324 3 -2353 11 -81 23 -155 124 -155 214 0 90 74 191 155 214 22 6
119 11 218 11 176 0 178 0 202 25 l25 24 0 1176 0 1175 447 0 448 0 -115 -71z
m1550 -261 l495 -306 3 -551 2 -551 -1020 0 -1020 0 2 551 3 551 500 309 c315
194 507 307 520 305 11 -2 243 -141 515 -308z m700 -1633 l0 -75 -1220 0
-1220 0 0 75 0 75 1220 0 1220 0 0 -75z"/>
<path d="M2113 3956 l-28 -24 -3 -389 c-2 -213 0 -407 3 -431 13 -86 -12 -82
475 -82 487 0 462 -4 475 82 3 24 5 218 3 431 l-3 389 -28 24 -28 24 -419 0
-419 0 -28 -24z m367 -251 l0 -125 -120 0 -120 0 0 125 0 125 120 0 120 0 0
-125z m400 0 l0 -125 -120 0 -120 0 0 125 0 125 120 0 120 0 0 -125z m-400
-400 l0 -125 -120 0 -120 0 0 125 0 125 120 0 120 0 0 -125z m400 0 l0 -125
-120 0 -120 0 0 125 0 125 120 0 120 0 0 -125z"/>
<path d="M321 1339 c-48 -14 -106 -53 -134 -91 -35 -47 -187 -354 -187 -378 0
-12 11 -32 25 -45 l24 -25 316 0 315 0 31 -63 31 -63 -31 -62 -31 -62 -316 0
-315 0 -24 -25 c-14 -13 -25 -33 -25 -45 0 -29 164 -352 199 -392 16 -18 51
-45 78 -58 47 -25 53 -25 326 -28 407 -5 416 0 542 248 l76 150 1339 0 1340 0
70 -139 c79 -158 108 -196 177 -231 47 -25 53 -25 326 -28 414 -5 414 -5 557
278 49 98 90 188 90 200 0 11 -11 32 -25 45 l-24 25 -316 0 -315 0 -31 63 -31
63 31 62 31 62 316 0 315 0 24 25 c14 13 25 34 25 45 0 12 -41 102 -90 200
-143 283 -143 283 -557 278 -273 -3 -279 -3 -326 -28 -69 -35 -98 -73 -177
-231 l-70 -139 -1340 0 -1339 0 -76 150 c-125 246 -135 250 -524 249 -146 0
-281 -5 -300 -10z m596 -158 c24 -15 50 -57 117 -190 48 -94 95 -175 106 -181
26 -14 2814 -14 2840 0 11 6 58 87 106 181 67 133 93 175 117 190 29 17 53 19
292 19 317 0 299 6 374 -138 28 -55 51 -103 51 -106 0 -3 -123 -6 -273 -6
-232 0 -276 -2 -295 -16 -28 -19 -132 -224 -132 -259 0 -35 104 -240 132 -259
19 -14 63 -16 295 -16 150 0 273 -3 273 -6 0 -3 -23 -51 -51 -106 -75 -144
-57 -138 -374 -138 -239 0 -263 2 -292 19 -24 15 -50 57 -117 190 -48 94 -95
175 -106 181 -26 14 -2814 14 -2840 0 -11 -6 -58 -87 -106 -181 -67 -133 -93
-175 -117 -190 -29 -17 -53 -19 -292 -19 -317 0 -299 -6 -374 138 -28 55 -51
103 -51 106 0 3 123 6 273 6 232 0 276 2 295 16 28 19 132 224 132 259 0 35
-104 240 -132 259 -19 14 -63 16 -295 16 -150 0 -273 2 -273 5 0 3 23 50 50
105 73 146 57 140 375 140 239 0 263 -2 292 -19z"/>
</g>
</svg>
