<?xml version="1.0" standalone="no"?>
<!DOCTYPE svg PUBLIC "-//W3C//DTD SVG 20010904//EN"
 "http://www.w3.org/TR/2001/REC-SVG-20010904/DTD/svg10.dtd">
<svg version="1.0" xmlns="http://www.w3.org/2000/svg"
 width="512.000000pt" height="512.000000pt" viewBox="0 0 512.000000 512.000000"
 preserveAspectRatio="xMidYMid meet">

<g transform="translate(0.000000,512.000000) scale(0.100000,-0.100000)"
fill="rgb(104, 113, 173)" stroke="none">
<path d="M1330 5109 c-500 -56 -945 -369 -1175 -828 -73 -147 -125 -328 -144
-503 -15 -133 -15 -2303 0 -2436 76 -704 627 -1255 1331 -1331 133 -15 2303
-15 2436 0 343 37 643 179 891 422 251 246 402 558 440 909 15 133 15 2303 0
2436 -37 343 -179 643 -422 891 -246 251 -558 402 -909 440 -117 13 -2334 13
-2448 0z m2540 -213 c203 -48 368 -122 521 -232 204 -147 386 -400 462 -640
65 -207 62 -126 62 -1464 0 -1134 -1 -1221 -18 -1299 -27 -124 -64 -236 -109
-326 -188 -376 -508 -621 -929 -712 -78 -17 -165 -18 -1299 -18 -1134 0 -1221
1 -1299 18 -279 60 -511 186 -694 376 -175 182 -287 398 -344 662 -17 78 -18
165 -18 1299 0 1134 1 1221 18 1299 57 264 169 480 344 662 201 209 481 350
769 388 38 5 602 8 1264 7 1109 -2 1200 -3 1270 -20z"/>
<path d="M1328 4665 c-210 -35 -399 -130 -555 -279 -172 -163 -280 -367 -318
-601 -22 -134 -22 -2316 0 -2450 63 -388 334 -711 701 -835 154 -53 231 -60
626 -60 l358 0 32 29 c44 39 46 98 5 138 l-27 28 -398 6 -397 5 -90 28 c-291
89 -500 298 -592 591 l-28 90 0 1205 0 1205 28 90 c92 293 299 500 592 592
l90 28 1205 0 1205 0 90 -28 c293 -92 500 -299 592 -592 l28 -90 0 -1205 0
-1205 -28 -90 c-92 -293 -301 -502 -592 -591 l-90 -28 -375 -3 c-206 -2 -386
-6 -398 -9 -13 -2 -35 -17 -48 -31 -43 -46 -27 -121 33 -152 35 -18 694 -15
808 4 455 74 806 425 880 880 22 134 22 2316 0 2450 -74 455 -425 806 -880
880 -125 21 -2336 20 -2457 0z"/>
<path d="M3753 4232 c-266 -95 -344 -428 -147 -626 187 -186 498 -128 613 114
22 47 26 68 26 150 0 86 -3 101 -31 160 -63 133 -184 213 -329 218 -58 2 -94
-3 -132 -16z m190 -196 c94 -40 134 -154 87 -246 -55 -107 -195 -127 -281 -41
-64 64 -73 146 -23 223 44 68 141 97 217 64z"/>
<path d="M2440 3933 c-197 -16 -517 -122 -550 -183 -23 -42 -15 -92 19 -122
40 -36 65 -35 164 6 196 80 290 100 487 100 146 1 249 -14 359 -51 410 -136
707 -470 798 -893 24 -116 24 -343 0 -459 -101 -473 -454 -827 -927 -928 -117
-24 -343 -24 -460 0 -423 91 -757 388 -893 798 -37 111 -52 213 -51 359 1 206
28 325 127 543 29 66 34 84 26 110 -12 44 -40 68 -85 74 -54 7 -81 -17 -132
-120 -260 -525 -152 -1164 267 -1581 541 -539 1401 -539 1942 0 542 539 542
1409 0 1948 -291 291 -677 432 -1091 399z"/>
<path d="M1633 3578 c-12 -6 -29 -26 -38 -45 -38 -80 34 -161 119 -133 101 33
82 191 -23 189 -20 0 -46 -5 -58 -11z"/>
<path d="M2397 3445 c-276 -53 -519 -237 -642 -490 -70 -142 -88 -224 -88
-395 0 -118 4 -160 22 -225 68 -251 246 -468 476 -580 142 -70 223 -88 395
-88 172 0 253 18 395 88 230 112 408 329 476 580 18 65 22 107 22 225 0 171
-18 253 -88 395 -112 230 -333 411 -580 475 -106 28 -283 35 -388 15z m301
-201 c44 -8 118 -35 172 -61 81 -39 108 -58 182 -133 72 -72 94 -103 131 -181
102 -209 102 -409 0 -618 -37 -78 -59 -109 -131 -181 -74 -75 -101 -94 -182
-133 -211 -102 -409 -102 -620 0 -81 39 -108 58 -182 133 -72 72 -94 103 -131
181 -50 102 -77 212 -77 309 0 97 27 207 77 309 37 78 59 109 131 181 74 74
101 94 182 133 153 74 292 93 448 61z"/>
<path d="M2525 631 c-64 -27 -81 -110 -32 -158 60 -61 162 -19 162 67 0 66
-72 116 -130 91z"/>
</g>
</svg>
