<?xml version="1.0" standalone="no"?>
<!DOCTYPE svg PUBLIC "-//W3C//DTD SVG 20010904//EN"
 "http://www.w3.org/TR/2001/REC-SVG-20010904/DTD/svg10.dtd">
<svg version="1.0" xmlns="http://www.w3.org/2000/svg"
 width="512.000000pt" height="512.000000pt" viewBox="0 0 512.000000 512.000000"
 preserveAspectRatio="xMidYMid meet">

<g transform="translate(0.000000,512.000000) scale(0.100000,-0.100000)"
fill="#590f34" stroke="none">
<path d="M3295 4583 c-22 -2 -88 -13 -148 -24 -616 -114 -1106 -588 -1243
-1199 -110 -495 20 -1005 356 -1385 l70 -80 0 -212 c0 -208 0 -212 22 -227 20
-14 90 -16 568 -16 300 0 597 5 660 10 501 45 955 334 1213 771 88 148 153
323 189 504 30 148 32 412 4 560 -57 307 -199 589 -407 809 -328 346 -813 531
-1284 489z m398 -118 c199 -35 432 -133 600 -252 120 -85 281 -250 360 -368
114 -172 184 -341 228 -545 19 -87 23 -136 23 -285 0 -149 -4 -198 -23 -285
-30 -143 -62 -235 -125 -365 -72 -147 -160 -269 -281 -390 -213 -213 -458
-343 -762 -407 -103 -21 -134 -22 -695 -26 l-588 -3 0 200 0 201 -63 67 c-185
198 -319 453 -371 707 -51 244 -36 514 40 751 181 562 679 958 1279 1019 74 8
289 -3 378 -19z"/>
<path d="M2567 3491 c-131 -43 -207 -141 -194 -250 12 -100 80 -191 173 -233
24 -10 92 -29 153 -43 171 -38 231 -79 231 -160 0 -93 -94 -173 -216 -183
-137 -11 -231 57 -280 202 -19 55 -40 70 -75 52 -20 -10 -24 -19 -23 -53 2
-92 89 -214 188 -263 221 -109 506 29 506 245 -1 134 -88 206 -312 259 -162
38 -211 70 -238 152 -42 127 113 226 286 183 63 -16 120 -71 149 -144 26 -66
50 -82 85 -58 19 14 22 22 16 60 -12 91 -72 170 -163 214 -84 42 -196 50 -286
20z"/>
<path d="M3345 3497 c-91 -30 -157 -88 -197 -172 l-28 -60 0 -250 0 -250 28
-60 c33 -68 92 -127 161 -159 35 -16 65 -21 131 -21 73 0 92 4 137 28 69 36
120 88 152 156 26 56 26 57 26 306 0 249 0 250 -26 306 -53 112 -153 180 -274
185 -40 2 -87 -2 -110 -9z m180 -106 c51 -23 111 -89 124 -138 14 -49 14 -427
0 -476 -13 -49 -73 -115 -124 -138 -103 -47 -240 3 -286 105 -16 36 -19 69
-19 271 0 261 6 285 76 343 65 54 155 67 229 33z"/>
<path d="M4072 3488 c-80 -27 -154 -91 -178 -153 -22 -59 -14 -129 23 -196 49
-91 125 -138 277 -170 50 -11 109 -27 131 -35 135 -53 160 -154 59 -243 -108
-95 -268 -95 -363 0 -35 34 -81 120 -81 151 0 10 -11 25 -25 34 -23 15 -27 15
-51 -1 -24 -15 -26 -21 -20 -58 11 -66 50 -142 101 -192 133 -133 361 -140
498 -15 68 62 97 121 97 195 0 135 -86 206 -312 259 -162 38 -211 70 -238 152
-26 77 23 152 115 180 145 43 273 -13 320 -141 26 -68 51 -84 86 -56 19 15 21
24 15 63 -28 185 -249 295 -454 226z"/>
<path d="M993 3876 c-509 -138 -485 -128 -588 -258 -293 -371 -374 -1013 -209
-1669 186 -739 628 -1285 1138 -1404 l61 -14 445 119 c246 65 458 124 473 131
15 7 29 20 32 29 5 16 -364 787 -410 857 -22 33 -15 34 -418 -75 l-329 -89
-26 41 c-14 23 -56 105 -94 183 -146 302 -228 645 -228 956 l0 123 313 83
c422 113 406 108 412 134 3 12 -8 229 -25 482 -32 481 -35 497 -79 494 -9 -1
-219 -56 -468 -123z m449 -396 c14 -217 23 -398 20 -401 -4 -3 -162 -47 -352
-98 -190 -51 -349 -96 -354 -101 -29 -29 -24 -278 9 -515 42 -291 175 -659
319 -880 46 -70 60 -85 81 -85 14 0 176 41 361 90 184 50 337 90 340 90 5 0
354 -709 354 -720 0 -8 -219 -64 -226 -57 -3 2 -28 90 -56 193 -27 104 -55
195 -61 202 -6 7 -24 12 -41 10 -31 -3 -31 -4 -31 -58 1 -34 18 -115 44 -208
24 -84 41 -158 38 -165 -6 -15 -470 -142 -507 -139 -75 6 -257 86 -371 162
-109 73 -295 269 -386 406 -432 655 -541 1616 -248 2183 54 104 166 247 209
267 33 15 468 134 490 134 8 0 30 -67 61 -182 56 -214 64 -230 108 -226 28 3
32 7 35 36 2 18 -17 108 -42 200 -24 92 -46 175 -48 186 -3 16 12 23 97 46 55
16 107 27 115 26 13 -1 19 -66 42 -396z"/>
</g>
</svg>
