<?xml version="1.0" standalone="no"?>
<!DOCTYPE svg PUBLIC "-//W3C//DTD SVG 20010904//EN"
 "http://www.w3.org/TR/2001/REC-SVG-20010904/DTD/svg10.dtd">
<svg version="1.0" xmlns="http://www.w3.org/2000/svg"
 width="512.000000pt" height="512.000000pt" viewBox="0 0 512.000000 512.000000"
 preserveAspectRatio="xMidYMid meet">

<g transform="translate(0.000000,512.000000) scale(0.100000,-0.100000)"
fill="#590f34" stroke="none">
<path d="M1545 5101 c-16 -10 -173 -162 -347 -338 -241 -241 -320 -327 -328
-353 -6 -22 -10 -464 -10 -1232 l0 -1197 -261 -3 -261 -3 -29 -33 -29 -33 2
-895 3 -896 28 -24 28 -24 485 0 486 0 29 29 c29 29 29 31 29 140 l0 111 179
0 178 0 244 -60 c818 -199 1083 -262 1158 -275 155 -27 324 -14 476 38 167 57
1025 411 1072 443 187 123 216 394 59 562 -114 122 -265 151 -439 83 l-77 -29
-2 680 -3 680 -28 24 c-38 33 -96 33 -134 0 l-28 -24 -5 -718 -5 -718 -245
-93 c-293 -112 -380 -135 -513 -136 -53 0 -100 2 -102 5 -3 3 10 31 29 62 44
74 60 140 54 234 -8 132 -88 259 -200 315 -31 15 -244 77 -511 147 l-459 120
-349 0 -349 0 0 105 c0 170 -16 185 -195 185 l-115 0 0 1155 0 1155 280 0
c195 0 287 4 305 12 52 23 55 43 55 343 l0 275 1160 0 1160 0 0 -811 c0 -577
3 -817 11 -832 26 -51 91 -73 140 -47 50 27 49 5 49 939 0 653 -3 877 -12 896
-26 58 45 55 -1350 55 -1242 0 -1284 -1 -1313 -19z m-45 -471 l0 -140 -147 0
-148 0 141 140 c77 77 143 140 147 140 4 0 7 -63 7 -140z m-330 -3605 l0 -755
-345 0 -345 0 0 755 0 755 345 0 345 0 0 -755z m1323 346 c282 -74 458 -125
475 -138 94 -70 95 -235 1 -306 -39 -29 -108 -50 -141 -43 -13 3 -159 37 -325
76 -325 76 -331 76 -372 24 -30 -39 -28 -89 7 -123 22 -23 52 -34 167 -60 77
-18 268 -64 425 -101 376 -91 395 -93 564 -87 181 7 205 14 727 210 229 86
429 157 445 157 41 -1 107 -33 132 -64 65 -84 47 -209 -39 -260 -46 -27 -991
-406 -1064 -427 -94 -26 -233 -35 -320 -20 -39 7 -375 86 -747 177 l-678 164
-190 0 -190 0 0 470 0 470 338 0 337 0 448 -119z"/>
<path d="M1923 4301 c-33 -21 -41 -38 -45 -105 -3 -36 -6 -39 -53 -57 -189
-70 -246 -312 -108 -460 61 -66 120 -89 246 -96 124 -7 147 -21 147 -90 0 -33
-6 -50 -25 -68 -24 -25 -27 -25 -195 -25 -187 0 -216 -7 -238 -55 -19 -41 -14
-81 12 -112 23 -26 31 -28 118 -33 l93 -5 5 -54 c5 -42 12 -58 33 -77 66 -57
151 -12 165 85 7 53 8 55 49 68 57 19 126 83 157 145 21 42 26 66 26 127 0 90
-22 146 -78 204 -62 65 -102 80 -231 87 -108 7 -116 8 -138 34 -34 40 -31 87
8 120 30 26 32 26 206 26 l175 0 29 29 c21 22 29 39 29 66 0 77 -41 105 -155
105 l-75 0 0 30 c0 37 -21 90 -43 108 -28 23 -79 25 -114 3z"/>
<path d="M2683 4308 c-30 -15 -56 -72 -48 -107 3 -16 17 -39 31 -52 l26 -24
371 -3 c401 -3 417 -1 442 49 24 45 19 87 -14 120 l-29 29 -379 -1 c-245 0
-386 -4 -400 -11z"/>
<path d="M2665 3766 c-34 -34 -41 -71 -21 -113 30 -63 43 -64 453 -61 l365 3
29 33 c40 44 40 93 0 133 l-29 29 -387 0 -386 0 -24 -24z"/>
<path d="M2693 3255 c-40 -17 -69 -71 -59 -110 4 -15 18 -38 31 -51 l24 -24
386 0 387 0 29 29 c40 40 40 89 0 133 l-29 33 -369 2 c-302 2 -374 0 -400 -12z"/>
<path d="M4067 2959 c-22 -13 -47 -61 -47 -93 0 -14 13 -40 29 -58 24 -27 36
-33 71 -33 35 0 47 6 71 33 16 18 29 44 29 58 0 33 -25 81 -49 94 -25 13 -81
12 -104 -1z"/>
<path d="M1694 2724 c-60 -29 -73 -107 -25 -155 l29 -29 882 0 882 0 29 29
c49 50 32 138 -32 160 -23 8 -285 11 -883 11 -745 0 -855 -2 -882 -16z"/>
<path d="M1688 2194 c-34 -18 -48 -43 -48 -84 0 -42 15 -67 50 -85 25 -13 142
-15 890 -15 925 0 903 -1 930 49 13 25 13 77 0 102 -27 50 -5 49 -932 49 -742
-1 -867 -3 -890 -16z"/>
</g>
</svg>
