<?xml version="1.0" standalone="no"?>
<!DOCTYPE svg PUBLIC "-//W3C//DTD SVG 20010904//EN"
 "http://www.w3.org/TR/2001/REC-SVG-20010904/DTD/svg10.dtd">
<svg version="1.0" xmlns="http://www.w3.org/2000/svg"
 width="512.000000pt" height="512.000000pt" viewBox="0 0 512.000000 512.000000"
 preserveAspectRatio="xMidYMid meet">

<g transform="translate(0.000000,512.000000) scale(0.100000,-0.100000)"
fill="rgb(104, 113, 173)" stroke="none">
<path d="M2390 5113 c-371 -35 -643 -110 -940 -257 -156 -77 -303 -168 -352
-217 -50 -48 -52 -96 -9 -140 39 -38 93 -40 142 -3 133 99 379 226 569 292
272 95 471 127 780 126 249 0 381 -17 600 -75 633 -168 1186 -621 1483 -1215
166 -333 241 -654 241 -1039 1 -234 -13 -355 -65 -564 -148 -600 -532 -1118
-1069 -1441 -536 -323 -1192 -414 -1806 -250 -149 40 -252 78 -416 157 l-137
65 -453 -122 c-674 -182 -678 -183 -684 -177 -3 3 62 248 145 544 83 296 151
547 151 558 0 11 -31 81 -69 155 -170 333 -247 632 -258 1000 -15 498 106 932
377 1354 38 61 70 120 70 132 0 37 -22 74 -51 90 -68 35 -108 8 -197 -129
-257 -396 -386 -820 -399 -1302 -11 -444 74 -830 268 -1217 l51 -102 -172
-617 c-124 -441 -171 -624 -166 -643 8 -34 38 -64 72 -72 19 -5 213 43 661
165 l634 171 57 -29 c169 -85 398 -165 595 -206 859 -182 1745 87 2348 712
389 403 622 886 700 1453 17 123 18 507 1 625 -69 485 -248 908 -540 1275 -92
116 -289 312 -401 400 -466 365 -1021 555 -1596 548 -71 0 -146 -3 -165 -5z"/>
<path d="M2351 4709 c-238 -25 -495 -100 -716 -208 -634 -311 -1068 -905
-1177 -1611 -17 -112 -17 -498 0 -610 42 -273 129 -522 267 -765 36 -63 65
-120 65 -125 0 -6 -43 -164 -95 -350 -52 -186 -95 -355 -95 -375 0 -45 45 -95
84 -95 14 0 190 45 392 99 l367 99 96 -53 c214 -118 434 -194 696 -241 123
-22 423 -30 555 -15 325 37 625 138 895 301 95 57 115 80 115 128 0 44 -14 68
-52 88 -42 22 -70 14 -169 -46 -543 -331 -1230 -371 -1813 -106 -40 19 -119
59 -175 90 -74 41 -111 56 -139 56 -20 -1 -165 -36 -322 -79 -157 -43 -286
-77 -288 -76 -1 1 34 130 78 286 44 156 80 295 80 310 0 14 -30 77 -66 140
-206 354 -294 664 -294 1031 0 984 732 1807 1710 1923 926 110 1804 -466 2075
-1361 62 -204 78 -319 78 -559 0 -172 -3 -231 -21 -325 -48 -262 -135 -490
-267 -703 -55 -87 -58 -125 -16 -168 34 -33 91 -40 128 -14 22 15 109 156 162
262 86 173 154 385 192 600 29 166 32 499 6 662 -87 535 -341 985 -752 1329
-432 363 -1017 540 -1584 481z"/>
<path d="M820 4403 c-56 -22 -83 -89 -56 -141 20 -38 44 -52 91 -52 50 0 95
44 95 94 0 62 -76 120 -130 99z"/>
<path d="M1635 3773 c-131 -47 -233 -141 -301 -278 -102 -206 -119 -424 -52
-645 68 -222 286 -555 543 -828 288 -305 733 -570 1142 -679 87 -23 118 -26
268 -27 152 -1 178 1 245 22 154 49 256 118 331 226 59 83 84 160 94 283 5 71
3 103 -9 147 -28 96 -52 114 -324 247 -135 66 -264 124 -288 130 -111 28 -189
-16 -312 -177 -53 -71 -93 -114 -104 -114 -31 0 -113 35 -198 86 -208 124
-418 315 -536 489 l-57 84 49 57 c140 160 167 220 146 321 -15 67 -235 569
-263 599 -45 48 -104 67 -218 71 -83 3 -117 0 -156 -14z m214 -193 c17 -9 211
-440 226 -501 6 -23 -5 -40 -75 -120 -99 -115 -120 -153 -120 -218 0 -165 345
-541 682 -742 148 -89 218 -114 314 -114 73 0 84 3 118 28 20 16 72 74 115
130 119 155 105 147 204 102 158 -74 382 -188 390 -199 13 -18 -3 -168 -23
-213 -23 -52 -91 -127 -145 -159 -102 -59 -298 -80 -462 -49 -256 49 -652 245
-903 449 -318 258 -644 712 -711 991 -57 237 40 524 203 603 47 23 155 30 187
12z"/>
<path d="M3953 1222 c-58 -45 -46 -139 21 -167 34 -15 50 -13 92 7 51 24 59
105 15 149 -35 34 -92 39 -128 11z"/>
</g>
</svg>
